
        <svg xmlns="http://www.w3.org/2000/svg" xmlns:xlink="http://www.w3.org/1999/xlink" version="1.1" width="3187.5" height="935.2085481458029" viewBox="0 0 3187.5 935.2085481458029">
			
			<g transform="scale(9.375) translate(10, 10)">
				<defs id="SvgjsDefs1182"/><g id="SvgjsG1183" featureKey="UqkkrJ-0" transform="matrix(4.984723654305353,0,0,4.984723654305353,-9.574854331593917,-19.93889461722141)" fill="#fff"><path xmlns="http://www.w3.org/2000/svg" d="M20,14.5c0,0-2.3,5.5-8,5.5s-8-5.5-8-5.5s4.1,1,7.9,1S20,14.5,20,14.5z"/><path xmlns="http://www.w3.org/2000/svg" d="M21.3,8.5C17.1,7.2,13.8,4,12,4c-1.8,0-5.1,3.2-9.3,4.5c-0.7,0.2-1,1-0.6,1.6C3,11.3,4,11.4,4,12.8c0,0,4,1,8,1s8-1,8-1  c0-1.4,1-1.5,1.8-2.8C22.2,9.5,21.9,8.7,21.3,8.5z M12,12c-1.1,0-2-1.9-2-3c0,0,0.9-1,2-1s2,1,2,1C14,10.1,13.1,12,12,12z"/></g><g id="SvgjsG1184" featureKey="0kuQ8p-0" transform="matrix(2.0329337374839684,0,0,2.0329337374839684,118.37365310695066,14.127669571027592)" fill="#fff"><path d="M4.04 6 c2.2 0 3.28 1.22 3.28 3.46 l0 1.82 c0 2.24 -1.08 3.46 -3.28 3.46 l-1.04 0 l0 5.26 l-2.2 0 l0 -14 l3.24 0 z M4.04 8 l-1.04 0 l0 4.74 l1.04 0 c0.7 0 1.08 -0.32 1.08 -1.32 l0 -2.1 c0 -1 -0.38 -1.32 -1.08 -1.32 z M10.36 9.22 l0 7.56 c0 1 0.44 1.38 1.14 1.38 s1.14 -0.38 1.14 -1.38 l0 -7.56 c0 -1 -0.44 -1.38 -1.14 -1.38 s-1.14 0.38 -1.14 1.38 z M8.16 16.64 l0 -7.28 c0 -2.24 1.18 -3.52 3.34 -3.52 s3.34 1.28 3.34 3.52 l0 7.28 c0 2.24 -1.18 3.52 -3.34 3.52 s-3.34 -1.28 -3.34 -3.52 z M16.26 20 l0 -14 l2.2 0 l0 12 l3.62 0 l0 2 l-5.82 0 z M23.040000000000003 20 l0 -14 l2.2 0 l0 14 l-2.2 0 z M26.700000000000003 6 l6.24 0 l0 1.96 l-4.18 10.04 l4.18 0 l0 2 l-6.44 0 l0 -1.96 l4.18 -10.04 l-3.98 0 l0 -2 z M34.24 20 l0 -14 l2.2 0 l0 14 l-2.2 0 z M42.92 6 l2.24 14 l-2.22 0 l-0.38 -2.54 l-2.7 0 l-0.38 2.54 l-2.02 0 l2.24 -14 l3.22 0 z M41.18 8.48 l-1.04 7.08 l2.12 0 l-1.04 -7.08 l-0.04 0 z M49.28 20 l0 -14 l3.48 0 c2.2 0 3.28 1.22 3.28 3.46 l0 7.08 c0 2.24 -1.08 3.46 -3.28 3.46 l-3.48 0 z M52.720000000000006 8 l-1.24 0 l0 10 l1.24 0 c0.7 0 1.12 -0.36 1.12 -1.36 l0 -7.28 c0 -1 -0.42 -1.36 -1.12 -1.36 z M57.44 20 l0 -14 l2.2 0 l0 14 l-2.2 0 z M64.06 9.36 c0 -2.24 1.1 -3.52 3.24 -3.52 s3.24 1.28 3.24 3.52 l0 0.44 l-2.08 0 l0 -0.58 c0 -1 -0.4 -1.38 -1.1 -1.38 s-1.1 0.38 -1.1 1.38 c0 1.02 0.44 1.78 1.88 3.04 c1.84 1.62 2.42 2.78 2.42 4.38 c0 2.24 -1.12 3.52 -3.28 3.52 s-3.28 -1.28 -3.28 -3.52 l0 -0.86 l2.08 0 l0 1 c0 1 0.44 1.36 1.14 1.36 s1.14 -0.36 1.14 -1.36 c0 -1.02 -0.44 -1.78 -1.88 -3.04 c-1.84 -1.62 -2.42 -2.78 -2.42 -4.38 z M71.17999999999999 8 l0 -2 l6.8 0 l0 2 l-2.3 0 l0 12 l-2.2 0 l0 -12 l-2.3 0 z M83.06 6 l2.24 14 l-2.22 0 l-0.38 -2.54 l-2.7 0 l-0.38 2.54 l-2.02 0 l2.24 -14 l3.22 0 z M81.32 8.48 l-1.04 7.08 l2.12 0 l-1.04 -7.08 l-0.04 0 z M84.91999999999999 8 l0 -2 l6.8 0 l0 2 l-2.3 0 l0 12 l-2.2 0 l0 -12 l-2.3 0 z M94.69999999999999 9.22 l0 7.56 c0 1 0.44 1.38 1.14 1.38 s1.14 -0.38 1.14 -1.38 l0 -7.56 c0 -1 -0.44 -1.38 -1.14 -1.38 s-1.14 0.38 -1.14 1.38 z M92.5 16.64 l0 -7.28 c0 -2.24 1.18 -3.52 3.34 -3.52 s3.34 1.28 3.34 3.52 l0 7.28 c0 2.24 -1.18 3.52 -3.34 3.52 s-3.34 -1.28 -3.34 -3.52 z"/></g>
			</g>
		</svg>
	