
        <svg xmlns="http://www.w3.org/2000/svg" xmlns:xlink="http://www.w3.org/1999/xlink" version="1.1" width="3147.4201474201473" height="762.1324520973433" viewBox="0 0 3147.4201474201473 762.1324520973433">
			
			<g transform="scale(7.371007371007371) translate(10, 10)">
				<defs id="SvgjsDefs2342"><linearGradient id="SvgjsLinearGradient2351"><stop id="SvgjsStop2352" stop-color="#fbb040" offset="0"/><stop id="SvgjsStop2353" stop-color="#f9ed32" offset="1"/></linearGradient></defs><g id="SvgjsG2343" featureKey="symbolFeature-0" transform="matrix(0.972223540884794,0,0,0.972223540884794,-4.86112975782404,-6.913092704623183)" fill="#000"><path xmlns="http://www.w3.org/2000/svg" d="M92.667,37.9879l-2.2797-7.0149c-0.1488-0.4583-0.5756-0.7684-1.0578-0.7684H65.5981L58.3453,7.879  c-0.1488-0.4583-0.5756-0.7684-1.0578-0.7684h-7.3765h-7.3743c-0.4822,0-0.9091,0.3101-1.0579,0.7684l-7.3337,22.5689H10.6705  c-0.4822,0-0.909,0.3101-1.0578,0.7684l-2.2786,7.0148L5.0545,45.246c-0.1488,0.4583,0.0141,0.9601,0.404,1.2435l19.1984,13.9484  L17.403,82.7634c-0.1488,0.4583,0.0141,0.9601,0.404,1.2435l5.9668,4.335c0.0011,0.0008,0.0025,0.001,0.0036,0.0018l5.9633,4.3332  c0.1954,0.1417,0.4246,0.2123,0.6537,0.2123c0.2292,0,0.4584-0.0706,0.6538-0.2123l19.1985-13.9482l18.9906,13.7983  c0.1955,0.1417,0.4247,0.2123,0.6538,0.2123c0.2292,0,0.4583-0.0706,0.6538-0.2123l5.9679-4.3361l5.9669-4.335  c0.3899-0.2834,0.5528-0.7852,0.404-1.2435l-7.3336-22.5684l18.9913-13.7989c0.3899-0.2834,0.5528-0.7852,0.404-1.2435  L92.667,37.9879z M88.5215,32.4289l1.78,5.478l-5.9775,4.3427l-11.7761,8.5549l-0.3786-1.165l-1.1776-3.6251l9.3367-6.783  c0.3899-0.2835,0.5528-0.7852,0.404-1.2435c-0.1488-0.4584-0.5756-0.7684-1.0578-0.7684l-30.3823-0.0011l1.5562-4.7895h6.5662H64.79  H88.5215z M44.3438,45.246c-0.0005,0.0017,0.0001,0.0035-0.0004,0.0053l-2.3911,7.3598l-4.2834-3.1116l8.5549-26.3282l2.6467,8.1454  l-0.3297,1.015l-1.8381,5.6551L44.3438,45.246z M53.8686,46.7019l2.3669,7.2837l-6.1958,4.5015l-6.1957-4.501l2.3668-7.2841H53.8686  z M48.1476,59.8618l-4.2828,3.1116L21.4692,46.7019h8.5636L48.1476,59.8618z M44.5187,65.248l6.1753-4.486  c0.001-0.0007,0.0016-0.0017,0.0026-0.0024l6.2618-4.5493l1.6356,5.0349l-3.1498,2.2885l-19.2455,13.982l2.6458-8.1453  L44.5187,65.248z M56.207,46.7019h5.2942l8.554,26.3288l-6.9277-5.0349l-0.6911-2.1261L56.207,46.7019z M62.3094,44.4771h-7.6328  c-0.0016,0-0.003,0.0005-0.0045,0.0005h-7.7385l1.6359-5.035l27.6817,0.001l-6.9297,5.0339h-7.0087  C62.3116,44.4777,62.3105,44.4771,62.3094,44.4771z M56.4794,9.3349l6.7803,20.8698h-5.037L51.4418,9.3349H56.4794z   M36.0115,31.9037c0.0002-0.0007-0.0001-0.0013,0.0001-0.002l7.3329-22.5668h5.7582l6.7809,20.8698h-5.0354l-3.5667-10.9758  c-0.1488-0.4583-0.5756-0.7684-1.0579-0.7684c-0.4822,0-0.909,0.3101-1.0578,0.7684l-9.3893,28.8954l-4.0745-2.9597l2.0297-6.246  L36.0115,31.9037z M11.4785,32.6722h21.9438l-1.5567,4.7906H9.9222L11.4785,32.6722z M7.4199,45.1651L9.2,39.687h21.9429  l-1.5567,4.7906H18.046c-0.4822,0-0.9091,0.3101-1.0579,0.7684s0.0142,0.9601,0.4041,1.2435l24.5804,17.8586l-4.0748,2.9604  l-0.0032-0.0023l-5.3085-3.8578l-5.9679-4.335c-0.0002-0.0001-0.0003-0.0001-0.0004-0.0001L7.4199,45.1651z M19.7684,82.6826  l6.7803-20.8702l4.0757,2.9612l-6.7811,20.8691L19.7684,82.6826z M49.5927,76.454c-0.0007,0.0005-0.0012,0.0012-0.0018,0.0017  L30.3944,90.4022l-4.6581-3.3847l4.9995-15.3885l1.781-5.4806l2.0873,1.5164l1.9863,1.4436l-3.5655,10.9757  c-0.1488,0.4583,0.0141,0.9601,0.404,1.2435c0.391,0.2835,0.9166,0.2835,1.3076,0l24.5809-17.8584l1.5563,4.7893l-2.3778,1.7275  l-2.9338,2.131c-0.0008,0.0005-0.0018,0.0007-0.0025,0.0013L49.5927,76.454z M69.8912,90.2524L52.1389,77.3541l4.0747-2.9604  L73.967,87.2914L69.8912,90.2524z M80.5183,82.5316l-4.6589,3.3851l-17.7532-12.898l3.2647-2.3719l0.8104-0.5886l9.3358,6.7841  c0.391,0.2834,0.9166,0.2834,1.3076,0c0.3899-0.2834,0.5528-0.7852,0.404-1.2435l-9.3882-28.8968h5.0353L80.5183,82.5316z   M74.8273,57.8193l-1.5563-4.7905l5.9775-4.3427l11.7762-8.555l1.5552,4.7896L74.8273,57.8193z"/></g><g id="SvgjsG2344" featureKey="textGroupContainer" transform="matrix(1,0,0,1,406,6)" fill="#000"><rect xmlns="http://www.w3.org/2000/svg" y="0" height="1" width="1" opacity="0"/><rect xmlns="http://www.w3.org/2000/svg" y="0" x="-298" width="3" height="72"/></g><g id="SvgjsG2345" featureKey="vMvB0T-0" transform="matrix(1.1102315525132838,0,0,1.1102315525132838,124.14717531138461,15.439004536686845)" fill="#000"><path d="M13.944 8.475 c1.4873 0 3.7 0.91594 3.7 3.4388 s-2.0564 3.4388 -3.4388 3.4388 l-10.172 0 l-0.016738 4.5342 l-2.3476 -0.0087696 l0.037794 -10.227 l0 -1.1757 l0.0043164 0 l0 -0.0043164 l1.1738 0.0043164 l11.059 0 z M14.856 12.823599999999999 c0.21816 -0.12072 0.4413 -0.32304 0.44118 -0.90952 c0 -0.47164 -0.15957 -0.72696 -0.56948 -0.91072 c-0.3725 -0.16701 -0.77926 -0.18049 -0.78304 -0.18049 l-9.8895 0 l0 2.1822 l10.141 0 c0.1024 -0.0035352 0.40818 -0.04211 0.66022 -0.18152 z M35.925 9.649 c0.91776 0.9099 0.9102 2.226 0.89856 4.2182 c-0.00091796 0.14832 -0.0016992 0.302 -0.0023438 0.46118 c-0.0044532 1.1823 -0.0075976 2.0366 -0.13172 2.757 c-0.10568 0.6142 -0.34974 1.4995 -1.2436 2.0954 c-1.1321 0.75466 -2.8232 0.77168 -6.5282 0.8087 c-0.57862 0.0057618 -1.1122 0.010078 -1.6046 0.010078 c-2.9354 0 -4.411 -0.15537 -5.3538 -1.0922 c-0.98198 -0.9757 -0.97648 -2.4126 -0.96838 -4.5876 c0.0090234 -2.4268 0.014512 -3.8916 1.2447 -4.801 c1.0614 -0.7845 2.6028 -0.80516 5.9798 -0.85054 l0.67396 -0.0092774 c4.2088 -0.060156 5.9508 -0.085136 7.0354 0.99024 z M34.491 13.854199999999999 c0.006543 -1.1448 0.013457 -2.3288 -0.20864 -2.5488 c-0.27556 -0.27322 -1.5123 -0.33638 -3.1584 -0.33638 c-0.67736 0 -1.4242 0.010723 -2.2018 0.021836 l-0.67606 0.0092774 c-2.4194 0.032442 -4.1674 0.055976 -4.625 0.39406 c-0.2888 0.21346 -0.2935 1.4744 -0.29898 2.9346 c-0.0050976 1.3559 -0.0099414 2.6366 0.28016 2.9248 c0.4554 0.45254 2.9138 0.42782 5.2914 0.40428 c2.7302 -0.027206 4.7028 -0.046954 5.258 -0.4171 c0.32686 -0.2179 0.33104 -1.3516 0.33692 -2.9208 c0.00052734 -0.16074 0.0014453 -0.316 0.0023632 -0.46588 z M42.517 17.619 l13.59 0 l0 2.3477 l-15.938 0 l0 -11.407 l2.3477 0 l0 9.0597 z M61.7938 20.02461 l-2.3246 0 l0 -11.295 l2.3246 0 l0 11.295 z M81.08699999999999 8.491 l0 2.3943 l-11.374 6.6654 l11.374 0 l0 2.3477 l-15.938 0 l0 -2.3943 l11.374 -6.6656 l-11.374 0 l0 -2.3476 l15.938 0 z M86.7738 20.02461 l-2.3246 0 l0 -11.295 l2.3246 0 l0 11.295 z M98.2954 7.711 l9.1766 12.19 l-2.9508 0 l-2.566 -3.3974 l-7.3197 0 l-2.5286 3.3974 l-2.9177 0 z M96.39620000000001 14.1556 l3.7983 0 l-1.8992 -2.5322 z M133.25300000000001 10.8272 c0.95568 0.96942 1.4718 2.2114 1.4534 3.497 c-0.02289 1.5915 -0.78998 3.0436 -2.16 4.0892 c-1.4271 1.089 -3.4354 1.6646 -5.8082 1.6646 c-4.5288 0 -6.808 -0.0667 -6.8304 -0.067344 l-1.1387 -0.03414 l0 -11.373 l7.9691 0 c3.5728 0 5.5148 1.2092 6.5148 2.2236 z M126.73840000000001 17.7304 c3.8486 0 5.5962 -1.7276 5.6208 -3.4396 c0.009414 -0.66168 -0.25962 -1.2893 -0.77796 -1.8153 c-0.9689 -0.9829 -2.6888 -1.5241 -4.843 -1.5241 l-5.6214 0 l0 6.737 c1.09 0.018965 2.963 0.041992 5.6214 0.041992 z M140.3938 20.02461 l-2.3246 0 l0 -11.295 l2.3246 0 l0 11.295 z M155.418 11.0046 c-0.21816 0.12059 -0.44118 0.32306 -0.44118 0.90966 c0 0.45724 0.14779 0.70718 0.52734 0.89108 c0.38386 0.18598 0.81196 0.19957 0.83354 0.2001 l8.5334 0.03336 c1.4828 0 3.6956 0.9158 3.6956 3.4388 s-2.0564 3.4388 -3.4388 3.4388 l-12.499 0 l0 -2.3477 l12.488 0 c0.1024 -0.0035352 0.40818 -0.04211 0.66022 -0.18152 c0.21828 -0.12072 0.44128 -0.32318 0.44128 -0.90964 c0 -0.45724 -0.14779 -0.70718 -0.52734 -0.89108 c-0.3827 -0.18547 -0.81038 -0.19947 -0.8343 -0.20012 l-8.5278 -0.03793 l0 0.0045703 c-1.4875 0 -3.7004 -0.9158 -3.7004 -3.4388 s2.0564 -3.4388 3.4388 -3.4388 l12.499 0 l0 2.3477 l-12.488 0 c-0.10229 0.0035352 -0.40834 0.04211 -0.6605 0.18152 z M171.9092 8.475 l15.938 0 l0 2.3477 l-6.7954 0 l0 9.0932 l-2.3476 0 l0 -9.0932 l-6.7946 0 l0 -2.3477 z M195.3754 7.711 l9.1766 12.19 l-2.9508 0 l-2.566 -3.3974 l-7.3197 0 l-2.5286 3.3974 l-2.9177 0 z M193.47620000000003 14.1556 l3.7983 0 l-1.8992 -2.5322 z M202.9692 8.475 l15.938 0 l0 2.3477 l-6.7954 0 l0 9.0932 l-2.3476 0 l0 -9.0932 l-6.7946 0 l0 -2.3477 z M237.205 9.649 c0.91776 0.9099 0.9102 2.226 0.89856 4.2182 c-0.00091796 0.14832 -0.0016992 0.302 -0.0023438 0.46118 c-0.0044532 1.1823 -0.0075976 2.0366 -0.13172 2.757 c-0.10568 0.6142 -0.34974 1.4995 -1.2436 2.0954 c-1.1321 0.75466 -2.8232 0.77168 -6.5282 0.8087 c-0.57862 0.0057618 -1.1122 0.010078 -1.6046 0.010078 c-2.9354 0 -4.411 -0.15537 -5.3538 -1.0922 c-0.98198 -0.9757 -0.97648 -2.4126 -0.96838 -4.5876 c0.0090234 -2.4268 0.014512 -3.8916 1.2447 -4.801 c1.0614 -0.7845 2.6028 -0.80516 5.9798 -0.85054 l0.67396 -0.0092774 c4.2088 -0.060156 5.9508 -0.085136 7.0354 0.99024 z M235.77100000000002 13.854199999999999 c0.006543 -1.1448 0.013457 -2.3288 -0.20864 -2.5488 c-0.27556 -0.27322 -1.5123 -0.33638 -3.1584 -0.33638 c-0.67736 0 -1.4242 0.010723 -2.2018 0.021836 l-0.67606 0.0092774 c-2.4194 0.032442 -4.1674 0.055976 -4.625 0.39406 c-0.2888 0.21346 -0.2935 1.4744 -0.29898 2.9346 c-0.0050976 1.3559 -0.0099414 2.6366 0.28016 2.9248 c0.4554 0.45254 2.9138 0.42782 5.2914 0.40428 c2.7302 -0.027206 4.7028 -0.046954 5.258 -0.4171 c0.32686 -0.2179 0.33104 -1.3516 0.33692 -2.9208 c0.00052734 -0.16074 0.0014453 -0.316 0.0023632 -0.46588 z"/></g><g id="SvgjsG2346" featureKey="sloganFeature-0" transform="matrix(1.0213952142137517,0,0,1.0213952142137517,317.29508692258025,42.234357275252286)" fill="#000"><path d="M4.017 19.59116 l-2.3478 0.000019531 l0 -2.375 l2.3477 0 l0 2.375 z M25.197000000000003 9.649 c0.91776 0.9099 0.9102 2.226 0.89856 4.2182 c-0.00091796 0.14832 -0.0016992 0.302 -0.0023438 0.46118 c-0.0044532 1.1823 -0.0075976 2.0366 -0.13172 2.757 c-0.10568 0.6142 -0.34974 1.4995 -1.2436 2.0954 c-1.1321 0.75466 -2.8232 0.77168 -6.5282 0.8087 c-0.57862 0.0057618 -1.1122 0.010078 -1.6046 0.010078 c-2.9354 0 -4.411 -0.15537 -5.3538 -1.0922 c-0.98198 -0.9757 -0.97648 -2.4126 -0.96838 -4.5876 c0.0090234 -2.4268 0.014512 -3.8916 1.2447 -4.801 c1.0614 -0.7845 2.6028 -0.80516 5.9798 -0.85054 l0.67396 -0.0092774 c4.2088 -0.060156 5.9508 -0.085136 7.0354 0.99024 z M23.762999999999998 13.854199999999999 c0.006543 -1.1448 0.013457 -2.3288 -0.20864 -2.5488 c-0.27556 -0.27322 -1.5123 -0.33638 -3.1584 -0.33638 c-0.67736 0 -1.4242 0.010723 -2.2018 0.021836 l-0.67606 0.0092774 c-2.4194 0.032442 -4.1674 0.055976 -4.625 0.39406 c-0.2888 0.21346 -0.2935 1.4744 -0.29898 2.9346 c-0.0050976 1.3559 -0.0099414 2.6366 0.28016 2.9248 c0.4554 0.45254 2.9138 0.42782 5.2914 0.40428 c2.7302 -0.027206 4.7028 -0.046954 5.258 -0.4171 c0.32686 -0.2179 0.33104 -1.3516 0.33692 -2.9208 c0.00052734 -0.16074 0.0014453 -0.316 0.0023632 -0.46588 z M46.661 17.557 l1.162 -0.017422 l0.034786 2.3242 l-1.1621 0.017402 c-0.18088 0.002754 -0.38542 0.0058984 -0.6087 0.0058984 c-1.614 0 -4.2026 -0.16008 -5.8378 -1.7712 c-0.72798 -0.71726 -1.1865 -1.629 -1.3698 -2.72 l-4.2054 0 l-0.016602 4.4896 l-2.3246 -0.0086328 l0.037402 -10.127 l0 -1.1635 l0.0043164 0 l0 -0.0043164 l1.1612 0.0043164 l10.951 0 c1.4728 0 3.6638 0.90678 3.6638 3.4048 c0 2.4982 -2.0362 3.405 -3.4048 3.405 l-3.4826 0 c0.12543 0.4252 0.32842 0.77924 0.61734 1.064 c1.1685 1.151 3.608 1.1146 4.7804 1.0969 z M34.6954 13.0714 l10.041 -0.000019531 c0.10148 -0.0035352 0.40426 -0.041718 0.6538 -0.17971 c0.21608 -0.11955 0.43686 -0.32006 0.43686 -0.90076 c0 -0.46692 -0.15799 -0.71972 -0.56382 -0.90166 c-0.36882 -0.16531 -0.77152 -0.17865 -0.77532 -0.17865 l-9.7922 0 l0 2.1608 z M70.186 14.394400000000001 c-0.019883 1.3657 -0.00015625 4.4302 0.00023438 4.4608 l0.0077148 1.1699 l-7.8979 0 c-2.3734 0 -4.3588 -0.53114 -5.7416 -1.5357 c-1.3856 -1.0067 -2.1486 -2.467 -2.1486 -4.112 c0 -1.3641 0.51466 -2.5964 1.4885 -3.563 c1.3944 -1.3842 3.6104 -2.1058 6.4102 -2.0846 c1.7076 0.012559 6.6666 0.00013672 6.7164 0 l1.1622 -0.0030078 l0.005879 2.3246 l-1.1622 0.0030078 c-0.050098 0.00013672 -5.0206 0.012695 -6.7396 0 c-2.1376 -0.016875 -3.824 0.4851 -4.7556 1.4098 c-0.53204 0.52812 -0.80174 1.1717 -0.80174 1.9133 c0 2.0496 2.1326 3.323 5.5658 3.323 l5.5599 0 c-0.0024804 -0.63696 -0.0043164 -1.4395 -0.0024804 -2.1608 l-4.4771 0 l0 -2.3246 l6.8269 0 z"/></g>
			</g>
		</svg>
	